<?xml version="1.0" encoding="utf-8"?>
<!-- Generator: Adobe Illustrator 17.0.0, SVG Export Plug-In . SVG Version: 6.00 Build 0)  -->
<!DOCTYPE svg PUBLIC "-//W3C//DTD SVG 1.1//EN" "http://www.w3.org/Graphics/SVG/1.1/DTD/svg11.dtd">
<svg version="1.1" xmlns="http://www.w3.org/2000/svg" xmlns:xlink="http://www.w3.org/1999/xlink" x="0px" y="0px" width="368px"
	 height="209px" viewBox="0 0 368 209" enable-background="new 0 0 368 209" xml:space="preserve">
<g id="Layer_1">
</g>
<g id="Layer_3">
</g>
<g id="Layer_6">
</g>
<g id="Layer_8">
</g>
<g id="Layer_5">
</g>
<g id="Layer_7">
</g>
<g id="Layer_2">
</g>
<g id="Layer_4">
	<path display="none" fill="#F6CD3F" d="M221.742,104.741c0,2.203-2.18,3.989-4.868,3.989h-9.304c-2.689,0-4.868-1.786-4.868-3.989
		l0,0c0-2.203,2.18-3.989,4.868-3.989h9.304C219.562,100.752,221.742,102.538,221.742,104.741L221.742,104.741z"/>
	<g>
		<g>
			<path fill="#AECE3C" d="M108.37,90.223c5.399-0.123,4.591-4.419,4.591-6.27c0-1.542-0.234-3.146-0.469-4.812
				c-0.234-1.666-0.391-3.331-0.391-4.873c0-5.799,5.972-7.397,13.248-7.397h2.739v5.244h-1.408c-3.521,0-4.773,1.666-4.773,4.38
				c0,1.11,0.235,2.221,0.392,3.516c0.156,1.234,0.391,2.653,0.391,4.196c0.078,4.688-2.348,6.416-6.651,7.156v0.124
				c4.303,0.74,6.729,2.529,6.651,7.218c0,1.604-0.235,3.023-0.391,4.319c-0.157,1.234-0.392,2.406-0.392,3.455
				c0,2.714,1.174,4.442,4.773,4.442h1.408v5.182h-2.817c-6.964,0-13.17-1.449-13.17-7.619c0-1.542,0.157-3.208,0.391-4.873
				c0.235-1.666,0.469-3.27,0.469-4.812c0-1.727,0.808-5.969-4.591-6.093V90.223z"/>
		</g>
		<g>
			<path fill="#AECE3C" d="M169.41,92.705c-5.399,0.124-4.591,4.365-4.591,6.093c0,1.542,0.234,3.146,0.469,4.812
				c0.234,1.666,0.391,3.331,0.391,4.873c0,6.169-6.206,7.619-13.17,7.619h-2.817v-5.182h1.408c3.599,0,4.773-1.727,4.773-4.442
				c0-1.049-0.235-2.221-0.392-3.455c-0.156-1.296-0.391-2.715-0.391-4.319c-0.078-4.688,2.348-6.478,6.651-7.218v-0.124
				c-4.303-0.74-6.729-2.468-6.651-7.156c0-1.543,0.235-2.962,0.391-4.196c0.157-1.295,0.392-2.406,0.392-3.516
				c0-2.714-1.252-4.38-4.773-4.38h-1.408v-5.244h2.739c7.276,0,13.248,1.597,13.248,7.397c0,1.542-0.157,3.208-0.391,4.873
				c-0.235,1.666-0.469,3.27-0.469,4.812c0,1.851-0.808,6.147,4.591,6.27V92.705z"/>
		</g>
		<path fill="#AECE3C" d="M114.49,58.224c1.928-1.416,2.09-4.025,0.362-5.828l-5.981-6.238c-1.728-1.803-4.693-2.116-6.621-0.7l0,0
			c-1.928,1.416-2.09,4.025-0.362,5.828l5.981,6.238C109.597,59.327,112.561,59.64,114.49,58.224L114.49,58.224z"/>
		<path fill="#AECE3C" d="M174.552,45.458c-1.928-1.416-4.892-1.103-6.621,0.7l-5.981,6.238c-1.728,1.803-1.566,4.412,0.362,5.828
			l0,0c1.928,1.416,4.892,1.103,6.621-0.7l5.981-6.238C176.642,49.484,176.48,46.874,174.552,45.458L174.552,45.458z"/>
		<path fill="#AECE3C" d="M138.231,31.454c-2.517,0-4.558,1.908-4.558,4.261v8.143c0,2.353,2.041,4.261,4.558,4.261l0,0
			c2.517,0,4.558-1.908,4.558-4.261v-8.143C142.789,33.361,140.748,31.454,138.231,31.454L138.231,31.454z"/>
		<path fill="#AECE3C" d="M100.959,81.447c0,2.203-2.18,3.989-4.868,3.989h-9.304c-2.689,0-4.868-1.786-4.868-3.989l0,0
			c0-2.203,2.18-3.989,4.868-3.989h9.304C98.78,77.459,100.959,79.244,100.959,81.447L100.959,81.447z"/>
		<path fill="#2F0C6A" d="M161.475,125.866c0.355,2.377-2.505,4.828-10.422,5.569l-21.145,2.417
			c-8.947,1.04-11.352-0.663-11.707-3.04l0,0c-0.355-2.377,2.705-5.614,10.422-5.569l21.145-2.417
			C157.877,121.176,161.12,123.489,161.475,125.866L161.475,125.866z"/>
		<path fill="#2F0C6A" d="M154.228,138.23c0.297,1.993-1.506,3.98-6.666,4.432l-13.769,1.574c-5.826,0.68-7.446-0.792-7.743-2.785
			l0,0c-0.297-1.993,1.616-4.632,6.666-4.432l13.769-1.574C151.746,134.237,153.931,136.237,154.228,138.23L154.228,138.23z"/>
		<path fill="#2F0C6A" d="M147.341,149.573c0.224,1.504-0.421,2.921-2.532,3.059l-5.615,0.642c-2.375,0.282-3.12-0.883-3.344-2.387
			l0,0c-0.224-1.504,0.433-3.405,2.532-3.059l5.615-0.642C146.111,146.486,147.116,148.069,147.341,149.573L147.341,149.573z"/>
		<text transform="matrix(0.86 0 0 1 179.5032 114.4465)" fill="#2F0C6A" font-family="'Futura-Bold'" font-size="50">PMD</text>
		<text transform="matrix(0.9016 0 0 1 282.5306 114.4465)" fill="#2F0C6A" font-family="'Futura-Bold'" font-size="50"> </text>
		<text transform="matrix(0.9016 0 0 1 179.5032 150.5232)" fill="#2F0C6A" font-family="'Futura-Bold'" font-size="30.0641">Market</text>
		<g>
			<path fill="#2F0C6A" d="M135.026,95.808l-0.025,0.031l-0.004,0.006c-0.004,0.01-0.02,0.047-0.043,0.105l-0.01-0.004
				c-0.041-0.014-0.082-0.031-0.121-0.047l0.068-0.193L135.026,95.808z"/>
			<path fill="#2F0C6A" d="M130.908,106.243c-0.01,0.056-0.021,0.113-0.033,0.168l0.187,0.055c0.017-0.051,0.037-0.101,0.054-0.152
				c-0.042-0.048-0.102-0.079-0.171-0.079C130.932,106.236,130.921,106.241,130.908,106.243z"/>
			<path fill="#2F0C6A" d="M136.714,79.83l0.001,0L136.714,79.83l-0.075-0.155c-0.004,0.002-0.056,0.029-0.146,0.078l-0.001,0.001
				l0,0L136.714,79.83z"/>
			<path fill="#2F0C6A" d="M136.051,96.063v0.066c0,0.006,0,0.012-0.055,0.195c-0.004-0.002-0.008-0.002-0.012-0.004l-0.169-0.06
				c0.025-0.084,0.041-0.134,0.043-0.148v-0.01l-0.002-0.039H136.051z"/>
			<path fill="#2F0C6A" d="M145.336,89.762c-0.002,0.041-0.214,4.046-7.7,9.741c-0.029,0.029-2.608,2.795-4.576,6.438
				c2.207-7.189,2.785-9.1,2.935-9.617c1.21,0.427,2.544-0.205,2.978-1.416l0.372-1.04c0.434-1.214-0.199-2.554-1.412-2.988
				l-1.038-0.374c-0.041-0.014-0.084-0.027-0.125-0.039l-1.88,5.24l-0.021-0.016l-0.039,0.051c0,0-0.002,0.002-0.004,0.004v0.002
				c-0.025,0.053-0.261,0.653-3.565,9.613c0.645-4.092,0.267-7.854,0.263-7.895c-2.501-9.067-0.243-12.382-0.22-12.416
				c1.482-3.208,5.38-5.179,5.419-5.199l-0.01-0.019l7.468,2.521v0.004C144.298,82.595,146.082,86.405,145.336,89.762z"/>
			<path fill="#2F0C6A" d="M144.183,82.352c-0.004-0.006-0.006-0.01-0.006-0.01l0.175-0.086c0.002,0.004,0.033,0.068,0.084,0.181
				l-0.253-0.082V82.352z"/>
			<path fill="#2F0C6A" d="M132.699,106.627c-0.019,0-0.036,0.007-0.054,0.011c-0.033,0.104-0.063,0.205-0.094,0.305l0.179,0.07
				c0.048-0.1,0.097-0.199,0.147-0.297C132.834,106.663,132.772,106.627,132.699,106.627z"/>
			<polygon display="none" fill="#2F0C6A" points="176.981,145.194 175.691,144.667 146.808,132.868 146.808,141.046 
				165.581,148.72 165.676,148.758 165.581,148.799 146.808,156.469 146.808,164.651 175.687,152.849 176.985,152.321 
				176.985,152.317 177.167,152.245 177.167,151.873 177.167,145.646 177.167,145.27 			"/>
			<polygon display="none" fill="#2F0C6A" points="77.925,145.194 77.739,145.27 77.739,145.646 77.739,151.873 77.739,152.245 
				77.921,152.317 77.921,152.321 79.219,152.849 108.099,164.651 108.099,156.469 89.325,148.799 89.23,148.758 89.325,148.72 
				108.099,141.046 108.099,132.868 79.215,144.667 			"/>
			<path fill="#2F0C6A" d="M145.529,89.787c-0.004,0.148-0.216,4.12-7.762,9.86c-0.019,0.021-2.906,3.117-4.889,7.067
				c0,0,0,0.002-0.002,0.002c-0.041-0.053-0.103-0.088-0.177-0.088c-0.019,0-0.037,0.006-0.055,0.01
				c0.002-0.002,0.002-0.002,0.002-0.004c1.06-3.454,2.871-9.359,3.169-10.374l0.169,0.06c0.004,0.002,0.008,0.002,0.012,0.004
				c-0.15,0.516-0.728,2.427-2.935,9.617c1.967-3.642,4.546-6.408,4.576-6.438c7.486-5.696,7.698-9.7,7.7-9.741
				c0.746-3.356-1.038-7.166-1.153-7.406l0.253,0.082c0,0,0,0,0,0.002C144.802,83.26,146.213,86.715,145.529,89.787z"/>
			<path fill="#2F0C6A" d="M134.944,95.946l0.01,0.004c-0.168,0.442-0.814,2.18-1.574,4.235c-0.76,2.055-1.634,4.424-2.263,6.13
				c-0.043-0.047-0.103-0.078-0.171-0.078c-0.014,0-0.025,0.004-0.037,0.008c0-0.002,0-0.002,0-0.004
				c0.859-4.398,0.429-8.711,0.427-8.74c-2.522-9.139-0.284-12.427-0.197-12.548c1.338-2.895,4.62-4.799,5.353-5.199
				c0.002,0,0.002,0,0.002,0l0.222,0.076v0.002l0.01,0.019c-0.039,0.019-3.937,1.991-5.419,5.199
				c-0.023,0.033-2.281,3.348,0.22,12.416c0.004,0.041,0.382,3.802-0.263,7.895c3.304-8.96,3.539-9.56,3.565-9.613v-0.002
				c0.002-0.002,0.004-0.004,0.004-0.004l0.039-0.051l0.021,0.016l-0.068,0.193C134.863,95.915,134.903,95.932,134.944,95.946z"/>
			<path fill="#2F0C6A" d="M147.339,78.918l-1.365,4.04l-1.537-0.518c0-0.002,0-0.002,0-0.002c-0.051-0.113-0.082-0.177-0.084-0.181
				l-0.175,0.086c0,0,0.002,0.004,0.006,0.01l-7.468-2.521v-0.002l-0.076-0.154c-0.004,0.002-0.056,0.029-0.146,0.078
				c0,0,0,0-0.002,0l-1.453-0.491l1.367-4.042L147.339,78.918z"/>
			<path fill="#2F0C6A" d="M130.875,106.412c0.011-0.056,0.023-0.113,0.033-0.168c-0.109,0.019-0.194,0.109-0.194,0.224
				c0,0.128,0.104,0.231,0.231,0.231c0.128,0,0.231-0.104,0.231-0.231c0-0.059-0.024-0.111-0.06-0.152
				c-0.018,0.051-0.037,0.101-0.054,0.152L130.875,106.412z"/>
			<path fill="#2F0C6A" d="M132.55,106.944c0.031-0.1,0.062-0.202,0.094-0.305c-0.101,0.025-0.177,0.112-0.177,0.22
				c0,0.128,0.104,0.231,0.231,0.231c0.128,0,0.231-0.104,0.231-0.231c0-0.055-0.022-0.103-0.053-0.142
				c-0.05,0.099-0.099,0.197-0.147,0.297L132.55,106.944z"/>
		</g>
	</g>
</g>
</svg>
